<?xml version="1.0" encoding="UTF-8" standalone="no"?>
<!-- Uploaded to: SVG Repo, www.svgrepo.com, Generator: SVG Repo Mixer Tools -->

<svg
   fill="#000000"
   version="1.1"
   id="Capa_1"
   width="800px"
   height="800px"
   viewBox="0 0 26.125 26.125"
   xml:space="preserve"
   sodipodi:docname="letters-and-numbers-education-svgrepo-com.svg"
   inkscape:version="1.4 (86a8ad7, 2024-10-11)"
   xmlns:inkscape="http://www.inkscape.org/namespaces/inkscape"
   xmlns:sodipodi="http://sodipodi.sourceforge.net/DTD/sodipodi-0.dtd"
   xmlns:xlink="http://www.w3.org/1999/xlink"
   xmlns="http://www.w3.org/2000/svg"
   xmlns:svg="http://www.w3.org/2000/svg"><defs
   id="defs4"><linearGradient
     id="swatch28"><stop
       style="stop-color:#fbfbfc;stop-opacity:0.63333333;"
       offset="0.56041133"
       id="stop28" /></linearGradient><linearGradient
     id="linearGradient16"
     inkscape:collect="always"><stop
       style="stop-color:#0e100d;stop-opacity:0.51863354;"
       offset="0"
       id="stop16" /><stop
       style="stop-color:#aff3eb;stop-opacity:0.02094241;"
       offset="1"
       id="stop17" /></linearGradient><linearGradient
     inkscape:collect="always"
     xlink:href="#linearGradient16"
     id="linearGradient17"
     x1="-2.5008547"
     y1="1.9202992"
     x2="28.447222"
     y2="25.276495"
     gradientUnits="userSpaceOnUse" /><linearGradient
     inkscape:collect="always"
     xlink:href="#swatch28"
     id="linearGradient28"
     x1="3.1937599"
     y1="8.2702198"
     x2="16.118053"
     y2="8.2702198"
     gradientUnits="userSpaceOnUse" /></defs><sodipodi:namedview
   id="namedview4"
   pagecolor="#505050"
   bordercolor="#eeeeee"
   borderopacity="1"
   inkscape:showpageshadow="0"
   inkscape:pageopacity="0"
   inkscape:pagecheckerboard="0"
   inkscape:deskcolor="#505050"
   inkscape:zoom="0.51707183"
   inkscape:cx="121.83994"
   inkscape:cy="126.67486"
   inkscape:window-width="1440"
   inkscape:window-height="829"
   inkscape:window-x="-8"
   inkscape:window-y="-8"
   inkscape:window-maximized="1"
   inkscape:current-layer="g3" />
<g
   id="g4"
   transform="matrix(0.8586539,0.16819029,-0.15938725,0.81371214,2.8558612,-0.9699325)"
   style="fill:#051230;fill-opacity:0.82608694;stroke:#16ac48;stroke-width:1.3374;stroke-linejoin:bevel;stroke-dasharray:2.67479, 1.3374;stroke-dashoffset:0;stroke-opacity:0">
	<g
   id="g3"
   style="fill:#051230;fill-opacity:0.82608694;stroke:#16ac48;stroke-width:1.3374;stroke-linejoin:bevel;stroke-dasharray:2.67479, 1.3374;stroke-dashoffset:0;stroke-opacity:0">
		
		
		
	<g
   id="g23"
   transform="matrix(0.84410677,-0.56578836,0.50811183,0.84410677,-3.0591785,6.6259613)"
   style="fill:#051230;fill-opacity:0.82608694;stroke:#16ac48;stroke-width:1.3374;stroke-linejoin:bevel;stroke-dasharray:2.67479, 1.3374;stroke-dashoffset:0;stroke-opacity:0"><text
     xml:space="preserve"
     style="font-size:6.27px;text-align:start;writing-mode:lr-tb;direction:ltr;text-anchor:start;mix-blend-mode:color-burn;fill:#051230;fill-opacity:0.82608694;stroke:#16ac48;stroke-width:1.3374;stroke-linejoin:bevel;stroke-dasharray:2.67479, 1.3374;stroke-dashoffset:0;stroke-opacity:0"
     x="5.4696569"
     y="7.0559826"
     id="text5"><tspan
       sodipodi:role="line"
       id="tspan5"
       style="fill:#051230;fill-opacity:0.82608694;stroke:#16ac48;stroke-width:1.3374;stroke-linejoin:bevel;stroke-dasharray:2.67479, 1.3374;stroke-dashoffset:0;stroke-opacity:0"
       x="5.4696569"
       y="7.0559826">30</tspan></text><text
     xml:space="preserve"
     style="font-size:8.70833px;text-align:start;writing-mode:lr-tb;direction:ltr;text-anchor:start;fill:#051230;fill-opacity:0.82608694;stroke:#16ac48;stroke-width:1.3374;stroke-linejoin:bevel;stroke-dasharray:2.67479, 1.3374;stroke-dashoffset:0;stroke-opacity:0"
     x="4.8761663"
     y="13.527626"
     id="text7"><tspan
       sodipodi:role="line"
       style="font-size:8.70833px;fill:#051230;fill-opacity:0.82608694;stroke:#16ac48;stroke-width:1.3374;stroke-linejoin:bevel;stroke-dasharray:2.67479, 1.3374;stroke-dashoffset:0;stroke-opacity:0"
       x="4.8761663"
       y="13.527626"
       id="tspan8">Jg</tspan></text></g></g>
</g>
<path
   sodipodi:type="spiral"
   style="mix-blend-mode:normal;fill:url(#linearGradient17);fill-opacity:1;fill-rule:evenodd;stroke:#081a00;stroke-width:0.0326562;stroke-opacity:0.23913044;opacity:1"
   id="path5"
   sodipodi:cx="8.2170944"
   sodipodi:cy="11.119872"
   sodipodi:expansion="1"
   sodipodi:revolution="6"
   sodipodi:radius="13.035659"
   sodipodi:argument="-18.385761"
   sodipodi:t0="0"
   d="M 8.2170944,11.119872 C 8.509366,11.266062 8.1642304,11.585973 7.9741178,11.605647 7.4589246,11.658961 7.1770939,11.070208 7.2455452,10.633919 7.3679886,9.8534994 8.2359314,9.4776801 8.9460242,9.6625483 9.988114,9.9338499 10.469355,11.113053 10.160193,12.091778 9.7481282,13.396265 8.2478648,13.985391 7.0022114,13.548745 5.4346838,12.99927 4.7367003,11.173814 5.3024468,9.6620125 5.9876417,7.8310188 8.1404148,7.0236732 9.9179306,7.7194499 12.012671,8.5393987 12.929681,11.020723 12.103291,13.063685 11.149192,15.422365 8.3385326,16.449235 6.030305,15.491843 3.4075502,14.403995 2.2706834,11.263473 3.3593485,8.6901061 4.5806661,5.8031769 8.0514225,4.5562148 10.889837,5.7763515 14.041015,7.1309346 15.398146,10.932199 14.04639,14.035591 12.558693,17.451076 8.426714,18.918433 5.0583987,17.434942 1.378563,15.81425 -0.19906415,11.351396 1.4162501,7.7181997 3.1698464,3.7739768 7.9637008,2.0860439 11.861743,3.8332531 16.070383,5.7196804 17.86865,10.844637 15.989488,15.007498 13.970289,19.480578 8.5141485,21.389203 4.0864923,19.37804 -0.65104795,17.226119 -2.6700521,11.438726 -0.52684832,6.7462933 1.7577542,1.744276 7.876458,-0.38512312 12.83365,1.8901548 18.100158,4.3074045 20.339967,10.757467 17.932586,15.979404 15.382718,21.510416 8.6012568,23.860646 3.1145859,21.321139 -2.6809403,18.638678 -5.141602,11.525781 -2.4699467,5.774387 0.34508603,-0.28566226 7.7894479,-2.8567652 13.805556,-0.05294363 20.130136,2.894642 22.811689,10.670496 19.875685,16.95131"
   transform="translate(1.2950854,-2.9027779)"
   inkscape:transform-center-x="0.98247886"
   inkscape:transform-center-y="-1.964957" /><text
   xml:space="preserve"
   style="font-size:6.27px;text-align:start;writing-mode:lr-tb;direction:ltr;text-anchor:start;fill:#20151e;fill-opacity:0.771536;stroke:#e5f2f5;stroke-width:0.0326562;stroke-opacity:0.526749"
   x="12.861539"
   y="12.459615"
   id="text17"><tspan
     sodipodi:role="line"
     style="stroke-width:0.0326562"
     x="12.861539"
     y="12.459615"
     id="tspan20" /></text><text
   xml:space="preserve"
   style="font-size:6.27px;text-align:start;writing-mode:lr-tb;direction:ltr;text-anchor:start;fill:#20151e;fill-opacity:0.771536;stroke:#e5f2f5;stroke-width:0.0326562;stroke-opacity:0.526749"
   x="12.10235"
   y="13.397436"
   id="text21"><tspan
     sodipodi:role="line"
     id="tspan21"
     style="stroke-width:0.0326562"
     x="12.10235"
     y="13.397436" /></text></svg>
